<?xml version="1.0" encoding="UTF-8" standalone="no"?>
<!-- Created with Inkscape (http://www.inkscape.org/) -->

<svg
   xmlns:dc="http://purl.org/dc/elements/1.1/"
   xmlns:cc="http://creativecommons.org/ns#"
   xmlns:rdf="http://www.w3.org/1999/02/22-rdf-syntax-ns#"
   xmlns:svg="http://www.w3.org/2000/svg"
   xmlns="http://www.w3.org/2000/svg"
   xmlns:sodipodi="http://sodipodi.sourceforge.net/DTD/sodipodi-0.dtd"
   xmlns:inkscape="http://www.inkscape.org/namespaces/inkscape"
   version="1.1"
   width="20.2889"
   height="20.274139"
   id="svg41147"
   xml:space="preserve"
   inkscape:version="0.48.2 r9819"
   sodipodi:docname="magn-invs.svg"><sodipodi:namedview
     pagecolor="#ffffff"
     bordercolor="#666666"
     borderopacity="1"
     objecttolerance="10"
     gridtolerance="10"
     guidetolerance="10"
     inkscape:pageopacity="0"
     inkscape:pageshadow="2"
     inkscape:window-width="1440"
     inkscape:window-height="852"
     id="namedview4371"
     showgrid="false"
     showguides="true"
     inkscape:guide-bbox="true"
     inkscape:zoom="11.640445"
     inkscape:cx="-8.7551713"
     inkscape:cy="10.13707"
     inkscape:window-x="0"
     inkscape:window-y="22"
     inkscape:window-maximized="1"
     inkscape:current-layer="g41171" /><metadata
     id="metadata41153"><rdf:RDF><cc:Work
         rdf:about=""><dc:format>image/svg+xml</dc:format><dc:type
           rdf:resource="http://purl.org/dc/dcmitype/StillImage" /><dc:title /></cc:Work></rdf:RDF></metadata><defs
     id="defs41151"><clipPath
       id="clipPath41165"><path
         d="M 0,0 17,0 17,17 0,17 0,0 z"
         id="path41167" /></clipPath></defs><g
     transform="matrix(1.25,0,0,-1.25,0,20.274139)"
     id="g41155"><g
       id="g41157" /><g
       id="g41159"><g
         transform="translate(0,-0.780689)"
         id="g41161"><g
           id="g41163" /><g
           id="g41169"><g
             clip-path="url(#clipPath41165)"
             id="g41171"><g
               id="g41173"><path
                 d="m -713.883,-6830.105 c 0.563,-0.161 1.84,-0.215 3.008,-0.215 4.238,0 6.82,2.097 6.82,5.808 0,3.672 -2.543,5.407 -6.414,5.407 -1.574,0 -2.808,0.121 -3.414,0 l 0,-11 z m -5,13 c 2.25,0.531 5.215,1 8,1 3.469,0 6.344,-1.024 7.957,-2.477 1.453,-1.289 2.379,-3.266 2.379,-5.727 0,-2.503 -0.726,-4.437 -2.098,-5.851 -1.855,-1.977 -4.882,-2.985 -8.23,-2.985 -1.129,0 -2.281,-0.082 -3.008,0.04 l 0,-11 -5,0 0,27 z"
                 id="path41175"
                 style="fill:#231f20;fill-opacity:1;fill-rule:nonzero;stroke:#231f20;stroke-width:1;stroke-linecap:butt;stroke-linejoin:miter;stroke-miterlimit:4;stroke-opacity:1;stroke-dasharray:none" /><path
                 d="m -230.883,-1316.105 c 0,-0.7 -1.305,-1 -2,-1 -0.699,0 -2,0.3 -2,1 l 0,14 4,0 0,-14 z"
                 id="path41177"
                 style="fill:#000000;fill-opacity:1;fill-rule:nonzero;stroke:#231f20;stroke-width:2;stroke-linecap:round;stroke-linejoin:round;stroke-miterlimit:10;stroke-opacity:1;stroke-dasharray:none" /><g
                 transform="translate(0,17)"
                 id="g41179"><path
                   d="m 9.41,-9.402 6.008,-6.008"
                   id="path41181"
                   style="fill:none;stroke:#ffffff;stroke-width:2.16;stroke-linecap:round;stroke-linejoin:miter;stroke-miterlimit:10;stroke-opacity:1;stroke-dasharray:none" /></g></g><path
               sodipodi:type="arc"
               style="fill:#94c472;fill-opacity:0;stroke:#ffffff;stroke-width:3.13178819999999991;stroke-miterlimit:4;stroke-opacity:1;stroke-dasharray:none"
               id="path4881"
               sodipodi:cx="2.877897"
               sodipodi:cy="16.279448"
               sodipodi:rx="7.5168948"
               sodipodi:ry="7.5168948"
               d="m 10.394792,16.279448 a 7.5168948,7.5168948 0 1 1 -15.0337898,0 7.5168948,7.5168948 0 1 1 15.0337898,0 z"
               transform="matrix(0.63861279,0,0,-0.63861279,4.0382024,21.520199)" /></g></g></g></g></g></svg>